
<svg width="32" height="32" viewBox="0 0 42 42" fill="none" xmlns="http://www.w3.org/2000/svg">
<path d="M21.0633 0.640015C9.96597 0.640015 0.9375 9.75561 0.9375 20.96C0.9375 32.1636 9.96597 41.28 21.0633 41.28C32.1598 41.28 41.1891 32.1636 41.1891 20.96C41.1891 9.75561 32.1614 0.640015 21.0633 0.640015ZM26.0684 21.6754H22.7941C22.7941 26.9571 22.7941 33.4585 22.7941 33.4585H17.9422C17.9422 33.4585 17.9422 27.0202 17.9422 21.6754H15.6358V17.5109H17.9422V14.8172C17.9422 12.888 18.8501 9.87348 22.8387 9.87348L26.434 9.88739V13.9299C26.434 13.9299 24.2492 13.9299 23.8244 13.9299C23.3996 13.9299 22.7957 14.1444 22.7957 15.0644V17.5117H26.4924L26.0684 21.6754Z" fill="white"/>
</svg>
