
<svg width="32" height="32" viewBox="0 0 41 42" fill="none" xmlns="http://www.w3.org/2000/svg">
<path d="M20.3084 0.640015C9.19494 0.640015 0.182617 9.7393 0.182617 20.96C0.182617 32.1807 9.19494 41.28 20.3084 41.28C31.4219 41.28 40.4342 32.1807 40.4342 20.96C40.4342 9.7393 31.4219 0.640015 20.3084 0.640015ZM31.7953 25.7706C31.7394 27.0127 31.5438 27.8607 31.2582 28.603C30.6578 30.1703 29.4307 31.4093 27.8783 32.0155C27.1434 32.3038 26.3032 32.501 25.0733 32.5578C23.8409 32.6145 23.4472 32.6281 20.3087 32.6281C17.1699 32.6281 16.7765 32.6145 15.5438 32.5578C14.3139 32.501 13.4737 32.3038 12.7388 32.0155C11.9674 31.7225 11.2691 31.2633 10.6917 30.6695C10.1039 30.0869 9.64913 29.3815 9.35893 28.603C9.07333 27.861 8.87771 27.0127 8.82182 25.7709C8.765 24.5263 8.7518 24.1288 8.7518 20.96C8.7518 17.7912 8.765 17.3937 8.82151 16.1495C8.8774 14.9074 9.07271 14.0594 9.35831 13.3171C9.64852 12.5385 10.1036 11.8331 10.6917 11.2505C11.2688 10.6568 11.9674 10.1976 12.7385 9.90456C13.4737 9.61621 14.3136 9.41901 15.5438 9.36227C16.7762 9.30553 17.1699 9.29189 20.3084 9.29189C23.4469 9.29189 23.8406 9.30553 25.073 9.36258C26.3032 9.41901 27.1431 9.61621 27.8783 9.90425C28.6494 10.1973 29.3481 10.6568 29.9254 11.2505C30.5132 11.8334 30.9683 12.5385 31.2582 13.3171C31.5441 14.0594 31.7394 14.9074 31.7956 16.1495C31.8518 17.3937 31.865 17.7912 31.865 20.96C31.865 24.1288 31.8518 24.5263 31.7953 25.7706Z" fill="white"/>
</svg>
