<svg
      xmlns="http://www.w3.org/2000/svg"
      width="32" height="32"
      fill="none"
      viewBox="0 0 41 42"
    >
      <g fill="#fff" clip-path="url(#clip0)">
        <path d="M24.16 20.96c0 2.148-1.724 3.89-3.852 3.89-2.127 0-3.852-1.742-3.852-3.89s1.725-3.89 3.852-3.89c2.128 0 3.852 1.742 3.852 3.89z" />
        <path d="M29.317 14.079a3.62 3.62 0 00-.864-1.342 3.576 3.576 0 00-1.329-.873c-.407-.16-1.019-.35-2.145-.401-1.22-.056-1.585-.069-4.67-.069-3.087 0-3.452.012-4.67.068-1.127.052-1.74.242-2.146.402a3.573 3.573 0 00-1.329.873 3.62 3.62 0 00-.865 1.342c-.158.41-.346 1.029-.397 2.166-.056 1.23-.068 1.6-.068 4.715 0 3.116.012 3.485.068 4.715.05 1.138.24 1.756.397 2.167.186.507.48.965.865 1.341.373.388.826.686 1.329.873.407.16 1.019.35 2.146.402 1.218.056 1.583.068 4.67.068 3.085 0 3.45-.012 4.67-.068 1.126-.052 1.738-.242 2.145-.402a3.846 3.846 0 002.193-2.214c.159-.411.347-1.029.398-2.167.056-1.23.068-1.6.068-4.715 0-3.115-.012-3.484-.068-4.715-.05-1.137-.24-1.755-.398-2.166zm-9.009 12.873c-3.277 0-5.934-2.683-5.934-5.992 0-3.31 2.657-5.992 5.934-5.992 3.278 0 5.935 2.683 5.935 5.992 0 3.31-2.657 5.992-5.934 5.992zm6.17-10.82a1.394 1.394 0 01-1.387-1.4c0-.774.62-1.4 1.386-1.4.766 0 1.387.626 1.387 1.4 0 .773-.62 1.4-1.387 1.4z" />
        <path d="M20.308.64C9.195.64.183 9.74.183 20.96s9.012 20.32 20.125 20.32c11.114 0 20.126-9.1 20.126-20.32S31.422.64 20.308.64zm11.487 25.13c-.056 1.243-.251 2.09-.537 2.833a5.938 5.938 0 01-3.38 3.413c-.735.288-1.575.485-2.805.542-1.232.056-1.626.07-4.764.07-3.14 0-3.533-.014-4.765-.07-1.23-.057-2.07-.254-2.805-.542a5.657 5.657 0 01-2.047-1.346 5.724 5.724 0 01-1.333-2.067c-.286-.742-.481-1.59-.537-2.832-.057-1.245-.07-1.642-.07-4.811s.013-3.566.07-4.81c.055-1.243.25-2.09.536-2.833a5.721 5.721 0 011.334-2.066 5.658 5.658 0 012.046-1.346c.736-.289 1.576-.486 2.806-.543 1.232-.056 1.626-.07 4.764-.07 3.139 0 3.533.014 4.765.07 1.23.057 2.07.254 2.805.542.771.293 1.47.753 2.047 1.347a5.722 5.722 0 011.333 2.066c.286.742.481 1.59.538 2.832.056 1.245.069 1.642.069 4.811s-.013 3.566-.07 4.81z" />
      </g>
      <defs>
        <clipPath id="clip0">
          <path
            fill="#fff"
            d="M0 0H40.252V40.64H0z"
            transform="translate(.183 .64)"
          />
        </clipPath>
      </defs>
    </svg>