
<svg width="32" height="32" viewBox="0 0 41 42" fill="none" xmlns="http://www.w3.org/2000/svg">
<path d="M20.6854 0.640015C9.57189 0.640015 0.55957 9.7393 0.55957 20.96C0.55957 32.1807 9.57189 41.28 20.6854 41.28C31.7988 41.28 40.8111 32.1807 40.8111 20.96C40.8111 9.7393 31.7988 0.640015 20.6854 0.640015ZM14.837 31.3581H9.93549V16.4694H14.837V31.3581ZM12.3864 14.4364H12.3545C10.7097 14.4364 9.6459 13.2932 9.6459 11.8644C9.6459 10.4035 10.7422 9.29189 12.419 9.29189C14.0957 9.29189 15.1275 10.4035 15.1595 11.8644C15.1595 13.2932 14.0957 14.4364 12.3864 14.4364ZM32.511 31.3581H27.61V23.393C27.61 21.3913 26.9003 20.0261 25.1269 20.0261C23.7729 20.0261 22.9665 20.947 22.6121 21.8359C22.4825 22.1541 22.4508 22.5987 22.4508 23.0436V31.3581H17.5496C17.5496 31.3581 17.6138 17.8662 17.5496 16.4694H22.4508V18.5775C23.1022 17.563 24.2676 16.12 26.8681 16.12C30.0929 16.12 32.511 18.2479 32.511 22.821V31.3581Z" fill="white"/>
</svg>
